<?xml version="1.0" encoding="utf-8"?>
<!-- Generator: Adobe Illustrator 21.1.0, SVG Export Plug-In . SVG Version: 6.00 Build 0)  -->
<svg version="1.1" id="Layer_1" xmlns="http://www.w3.org/2000/svg" xmlns:xlink="http://www.w3.org/1999/xlink" x="0px" y="0px"
	 viewBox="0 0 26 24" style="enable-background:new 0 0 26 24;" xml:space="preserve">
<g>
	<g>
		<g>
			<path d="M24.9,11H1.1C0.5,11,0,11.4,0,12s0.5,1,1.1,1h23.9c0.6,0,1.1-0.5,1.1-1C26,11.4,25.5,11,24.9,11z"/>
		</g>
	</g>
	<g>
		<g>
			<path d="M24.9,3H1.1C0.5,3,0,3.5,0,4s0.5,1,1.1,1h23.9c0.6,0,1.1-0.5,1.1-1S25.5,3,24.9,3z"/>
		</g>
	</g>
	<g>
		<g>
			<path d="M24.9,18.9H1.1c-0.6,0-1.1,0.5-1.1,1c0,0.6,0.5,1,1.1,1h23.9c0.6,0,1.1-0.5,1.1-1C26,19.4,25.5,18.9,24.9,18.9z"/>
		</g>
	</g>
</g>
</svg>
