<?xml version="1.0" encoding="utf-8"?>
<!-- Generator: Adobe Illustrator 21.1.0, SVG Export Plug-In . SVG Version: 6.00 Build 0)  -->
<svg version="1.1" id="Layer_1" xmlns="http://www.w3.org/2000/svg" xmlns:xlink="http://www.w3.org/1999/xlink" x="0px" y="0px"
	 viewBox="0 0 17 16" style="enable-background:new 0 0 17 16;" xml:space="preserve">
<path d="M15.6,1.5c-0.9-1-2.1-1.5-3.3-1.5C11,0,9.9,0.5,9,1.5L8.5,2L8,1.5C7.1,0.5,6,0,4.7,0C3.4,0,2.3,0.5,1.4,1.5
	C0.5,2.4,0,3.7,0,5c0,1.3,0.5,2.6,1.4,3.6l6.8,7.2C8.2,15.9,8.4,16,8.5,16c0.1,0,0.2-0.1,0.3-0.2l6.8-7.2c0.9-1,1.4-2.2,1.4-3.6
	C17,3.7,16.5,2.4,15.6,1.5z M14.9,7.9l-6.4,6.9L2.1,7.9C1.4,7.1,1,6.1,1,5S1.4,3,2.1,2.2C2.8,1.5,3.7,1,4.7,1c1,0,1.9,0.4,2.6,1.2
	l0.8,0.9c0.2,0.2,0.5,0.2,0.7,0l0.8-0.9c0.7-0.8,1.6-1.2,2.6-1.2c1,0,1.9,0.4,2.6,1.2C15.6,3,16,4,16,5.1C16,6.1,15.6,7.1,14.9,7.9z
	"/>
</svg>
