<?xml version="1.0" encoding="utf-8"?>
<!-- Generator: Adobe Illustrator 21.1.0, SVG Export Plug-In . SVG Version: 6.00 Build 0)  -->
<svg version="1.1" id="Layer_1" xmlns="http://www.w3.org/2000/svg" xmlns:xlink="http://www.w3.org/1999/xlink" x="0px" y="0px"
	 viewBox="0 0 20 20" style="enable-background:new 0 0 20 20;" xml:space="preserve">
<style type="text/css">
	.st0{fill:#242424;}
</style>
<path class="st0" d="M19.9,19.4l-5.8-5.8c1.5-1.4,2.4-3.4,2.4-5.6c0-4.4-3.7-7.9-8.2-7.9C3.7,0,0,3.6,0,7.9c0,4.4,3.7,7.9,8.2,7.9
	c2,0,3.8-0.7,5.2-1.8l5.8,5.8c0.1,0.1,0.2,0.1,0.3,0.1c0.1,0,0.2,0,0.3-0.1C20,19.8,20,19.5,19.9,19.4z M8.2,15.1
	c-4.1,0-7.5-3.2-7.5-7.2c0-4,3.3-7.2,7.5-7.2s7.5,3.2,7.5,7.2C15.7,11.9,12.3,15.1,8.2,15.1z"/>
</svg>
